<?xml version="1.0" standalone="no"?>
<!DOCTYPE svg PUBLIC "-//W3C//DTD SVG 20010904//EN"
 "http://www.w3.org/TR/2001/REC-SVG-20010904/DTD/svg10.dtd">
<svg version="1.0" xmlns="http://www.w3.org/2000/svg"
 width="700.000000pt" height="700.000000pt" viewBox="0 0 700.000000 700.000000"
 preserveAspectRatio="xMidYMid meet">
<metadata>
Created by potrace 1.14, written by Peter Selinger 2001-2017
</metadata>
<g transform="translate(0.000000,700.000000) scale(0.100000,-0.100000)"
fill="#000000" stroke="none">
<path d="M1057 6834 c-1 -1 -49 -4 -107 -7 -377 -21 -654 -255 -751 -635 -10
-41 -22 -101 -25 -135 -9 -80 -9 -4623 -1 -4702 46 -415 346 -698 787 -742 92
-10 4600 -9 4687 1 378 41 642 290 726 686 19 94 20 130 20 2405 0 1271 -3
2339 -6 2375 -40 393 -312 670 -727 740 -59 10 -559 13 -2338 14 -1245 1
-2264 0 -2265 0z m1991 -443 c10 -1 12 -153 10 -743 l-3 -743 -1222 0 c-810 0
-1223 3 -1224 10 0 5 -1 255 -1 555 -1 598 0 608 61 727 61 120 151 176 306
192 45 4 2005 6 2073 2z m2537 -5 c202 -34 316 -128 355 -295 9 -39 12 -192
12 -595 0 -297 -1 -552 -1 -566 l-1 -25 -1222 0 -1223 0 -3 745 -2 745 1022
-1 c563 -1 1041 -4 1063 -8z m366 -1951 c1 -38 1 -1437 0 -1450 -1 -14 -5341
-14 -5342 0 -5 76 -2 1476 4 1478 4 1 1206 2 2672 2 l2665 0 1 -30z m-2893
-2645 l2 -745 -1022 1 c-563 1 -1041 4 -1063 8 -154 26 -270 97 -319 195 -46
92 -48 120 -48 699 0 301 1 556 1 567 1 20 7 20 1224 20 l1222 0 3 -745z
m2893 735 c0 -5 1 -253 1 -550 0 -461 -2 -550 -16 -608 -40 -170 -135 -273
-283 -308 -34 -8 -348 -11 -1078 -11 -566 0 -1040 1 -1052 1 l-23 1 0 743 0
742 1225 0 c811 0 1225 -3 1226 -10z"/>
</g>
</svg>
